<svg width="564" height="15" viewBox="0 0 564 15" fill="none" xmlns="http://www.w3.org/2000/svg">
<g clip-path="url(#clip0_838_133)">
<path fill-rule="evenodd" clip-rule="evenodd" d="M29.1301 -48.4434C-18.6104 -49.2338 -16.5078 -49.8686 -20.3332 -47.3928C-21.0305 -46.5796 -28.043 -45.3889 -35.7471 -44.8846C-44.9745 -44.2805 -50.5316 -43.2651 -52.0314 -41.9089C-53.2837 -40.7766 -54.9139 -39.8501 -55.6541 -39.8501C-56.3944 -39.8501 -57 -38.5854 -57 -37.0396C-57 -34.7994 -56.0624 -34.2291 -52.3789 -34.2291C-49.8374 -34.2291 -47.758 -33.5968 -47.758 -32.8239C-47.758 -32.051 -48.9864 -31.4187 -50.4877 -31.4187C-54.4338 -31.4187 -55.5734 -28.6398 -51.7085 -28.4418C-49.9225 -28.3503 -47.9865 -28.3503 -47.4064 -28.4418C-46.8262 -28.5333 -46.3515 -27.9758 -46.3515 -27.2029C-46.3515 -26.4301 -47.9337 -25.7977 -49.8675 -25.7977C-51.8013 -25.7977 -53.3835 -25.1654 -53.3835 -24.3925C-53.3835 -23.6196 -52.7159 -22.9872 -51.9 -22.9872C-51.117 -22.9872 -47.7342 -21.7396 -44.2529 -20.1755C-46.0068 -19.9045 -47.0619 -19.5477 -47.0619 -19.1583C-47.0619 -18.3854 -44.6887 -17.7444 -41.788 -17.7339C-40.199 -17.7281 -38.2935 -17.5905 -36.5772 -17.3785C-34.6175 -16.8367 -32.4667 -16.3508 -30.0584 -15.9139L-29.482 -15.7531L-33.7012 -14.8115C-36.1151 -14.2728 -34.0896 -13.864 -27.9419 -13.6326C-26.4751 -13.5 -25.8743 -12.7423 -26.3253 -11.5679C-26.4043 -11.3622 -26.4445 -11.1608 -26.4478 -10.9658C-34.3531 -11.1539 -42.0411 -11.5319 -45.6555 -12.0581C-53.2319 -13.161 -55.3915 -12.9602 -53.7366 -11.3066C-52.3223 -9.89345 -42.3418 -7.69834 -38.0287 -7.85182C-35.7677 -7.93227 -33.4547 -7.24941 -32.8886 -6.33434C-32.3226 -5.41929 -29.761 -4.73023 -27.1962 -4.80309C-26.5637 -4.82105 -25.92 -4.80623 -25.2971 -4.76406C-26.2126 -3.84288 -25.4795 -3.46276 -22.6913 -2.1934C-22.1561 -1.94975 -21.6454 -1.66227 -21.1811 -1.35165C-23.667 -1.32636 -27.0214 -1.36314 -30.8884 -1.47035C-52.9698 -2.08249 -45.6992 -0.0161719 -21.39 1.22911C-20.5401 1.27264 -19.69 1.3177 -18.8442 1.36393C-18.8399 1.40279 -18.8377 1.44096 -18.8377 1.47837C-18.8377 2.53296 -16.8105 3.80091 -14.3327 4.29605C-10.4817 5.06563 -10.2266 5.35215 -12.5748 6.27002C-14.0856 6.86056 3.98101 7.29319 27.5733 7.23143C51.1656 7.16969 67.6204 6.67674 64.1395 6.13602C58.7327 5.29612 58.4254 5.08951 62.03 4.71776C63.3909 4.5774 72.1169 4.39807 84.4842 4.2351C96.8514 4.39807 105.577 4.5774 106.938 4.71776C110.543 5.08951 110.236 5.29612 104.829 6.13602C101.348 6.67674 117.803 7.16969 141.395 7.23143C164.987 7.29319 183.054 6.86056 181.543 6.27002C179.195 5.35215 179.45 5.06563 183.301 4.29605C185.779 3.80091 187.806 2.53296 187.806 1.47837C187.806 1.44096 187.808 1.40279 187.812 1.36393C188.658 1.3177 189.508 1.27265 190.358 1.22911C214.668 -0.0161719 221.938 -2.08249 199.857 -1.47035C195.99 -1.36314 192.635 -1.32636 190.149 -1.35165C190.614 -1.66227 191.124 -1.94975 191.66 -2.1934C194.448 -3.46276 195.181 -3.84288 194.265 -4.76406C194.888 -4.80623 195.532 -4.82105 196.164 -4.80309C198.729 -4.73023 201.291 -5.41929 201.857 -6.33434C202.423 -7.24941 204.736 -7.93227 206.997 -7.85182C209.956 -7.74654 215.581 -8.74635 219.279 -9.84082C219.763 -9.95281 220.135 -10.0709 220.398 -10.1955C221.53 -10.582 222.365 -10.9669 222.705 -11.3066C222.788 -11.3893 222.861 -11.4683 222.924 -11.5437C224.018 -11.8852 225.324 -12.1008 226.532 -12.1008C229.943 -12.1008 230.51 -12.5753 229.899 -14.9113C229.338 -17.0543 229.855 -17.7218 232.079 -17.7218C233.682 -17.7218 234.578 -18.1379 234.069 -18.6465C233.922 -18.7927 233.844 -19.0046 233.829 -19.2578C239.372 -19.6364 242.987 -20.1442 242.644 -20.7176C242.261 -21.3592 239.137 -22.3061 235.558 -22.8864C235.59 -23.1438 235.447 -23.26 235.115 -23.1768C233.901 -22.8721 230.277 -24.3991 228.007 -25.8557C227.92 -26.422 227.182 -27.1434 226.091 -27.8056C226.167 -28.3757 227.243 -28.5166 228.548 -28.111C230.392 -27.538 230.304 -27.782 228.196 -29.0845C227.732 -29.3716 227.247 -29.7193 226.779 -30.0935C228.258 -30.0424 230.087 -29.9579 232.298 -29.8428C239.642 -29.4606 244.194 -29.5022 242.415 -29.9352C240.017 -30.5189 239.565 -31.1709 240.666 -32.4567C241.808 -33.7889 240.29 -34.5724 234.119 -35.8359C225.438 -37.6137 219.933 -39.5318 219.184 -40.931C220.748 -41.4504 221.868 -42.1755 221.868 -42.856C221.868 -42.9824 221.39 -43.0962 220.526 -43.1939C220.435 -44.8942 215.864 -46.8488 208.995 -47.8356C204.567 -48.4719 201.895 -49.0801 203.057 -49.1871C204.787 -49.3465 204.738 -49.6423 202.788 -50.8184C201.478 -51.6085 196.579 -51.9953 191.9 -51.6782C186.822 -51.3337 183.403 -51.6541 183.415 -52.4732C183.441 -54.175 160.87 -54.5397 142.635 -53.1325C116.027 -51.0791 109.387 -50.8192 113.783 -52.0038C117.269 -52.9428 116.568 -53.1393 109.826 -53.1125C105.319 -53.0944 101.346 -52.6336 100.997 -52.0886C100.695 -51.6158 99.4242 -51.2198 97.0859 -50.895C93.8022 -51.3687 91.646 -51.8118 91.3346 -52.1229C90.9329 -52.5242 89.0219 -52.8531 87.0881 -52.8531C82.6612 -52.8531 83.8248 -51.5557 89.1106 -50.598C89.6087 -50.5078 90.0957 -50.4118 90.5538 -50.3148C83.5434 -49.9042 72.829 -49.7129 57.8235 -49.7086C41.0814 -49.7036 31.9173 -49.3044 29.1301 -48.4434ZM215.588 -18.5952C219.815 -18.6487 224.01 -18.7636 227.792 -18.9279C228.005 -17.877 227.399 -17.0829 226.438 -17.1597C225.472 -17.237 221.041 -17.4144 216.594 -17.5536C214.653 -17.6145 213.197 -17.6866 212.162 -17.79C213.697 -17.9095 214.956 -18.2094 215.588 -18.5952ZM-30.1851 -7.2967C-30.1851 -6.95588 -29.5522 -6.28619 -28.7786 -5.80852C-28.0051 -5.33085 -27.3722 -5.60973 -27.3722 -6.42821C-27.3722 -7.2467 -28.0051 -7.91638 -28.7786 -7.91638C-29.5522 -7.91638 -30.1851 -7.63753 -30.1851 -7.2967ZM175.852 4.73078C175.374 5.50366 175.653 6.13602 176.472 6.13602C177.291 6.13602 177.961 5.50366 177.961 4.73078C177.961 3.9579 177.682 3.32554 177.341 3.32554C177 3.32554 176.33 3.9579 175.852 4.73078ZM135.418 5.77778C142.573 6.03283 154.281 6.03283 161.436 5.77778C168.591 5.52273 162.737 5.31407 148.427 5.31407C134.117 5.31407 128.263 5.52275 135.418 5.77778ZM199.153 -7.2967C199.153 -6.95588 198.52 -6.28619 197.747 -5.80852C196.973 -5.33085 196.341 -5.60973 196.341 -6.42821C196.341 -7.2467 196.973 -7.91638 197.747 -7.91638C198.52 -7.91638 199.153 -7.63753 199.153 -7.2967ZM-6.88354 4.73078C-6.40546 5.50366 -6.68447 6.13602 -7.50373 6.13602C-8.32292 6.13602 -8.99315 5.50366 -8.99315 4.73078C-8.99315 3.9579 -8.71407 3.32554 -8.37292 3.32554C-8.03188 3.32554 -7.36159 3.9579 -6.88354 4.73078ZM33.5503 5.77778C26.3953 6.03283 14.687 6.03283 7.532 5.77778C0.376965 5.52273 6.23108 5.31407 20.5412 5.31407C34.8512 5.31407 40.7053 5.52275 33.5503 5.77778ZM-8.02734 -45.8845C-9.7677 -45.5495 -12.6157 -45.5495 -14.3561 -45.8845C-16.0965 -46.2194 -14.6726 -46.4935 -11.1917 -46.4935C-7.7109 -46.4935 -6.28692 -46.2194 -8.02734 -45.8845Z" fill="black"/>
<path fill-rule="evenodd" clip-rule="evenodd" d="M398.329 2.68068C350.589 3.47111 352.691 4.10589 348.866 1.63015C348.169 0.816891 341.156 -0.373791 333.452 -0.878105C324.225 -1.48215 318.668 -2.49761 317.168 -3.85382C315.916 -4.98614 314.285 -5.91258 313.545 -5.91258C312.805 -5.91258 312.199 -7.17731 312.199 -8.72308C312.199 -10.9633 313.137 -11.5336 316.82 -11.5336C319.362 -11.5336 321.441 -12.1659 321.441 -12.9388C321.441 -13.7117 320.213 -14.344 318.711 -14.344C314.765 -14.344 313.626 -17.1229 317.491 -17.3209C319.277 -17.4124 321.213 -17.4124 321.793 -17.3209C322.373 -17.2294 322.848 -17.7869 322.848 -18.5597C322.848 -19.3326 321.265 -19.965 319.332 -19.965C317.398 -19.965 315.816 -20.5973 315.816 -21.3702C315.816 -22.1431 316.483 -22.7755 317.299 -22.7755C318.082 -22.7755 321.465 -24.0231 324.946 -25.5872C323.192 -25.8582 322.137 -26.215 322.137 -26.6044C322.137 -27.3773 324.511 -28.0183 327.411 -28.0288C329 -28.0346 330.906 -28.1722 332.622 -28.3842C334.582 -28.926 336.733 -29.4119 339.141 -29.8488L339.717 -30.0096L335.498 -30.9512C333.084 -31.4899 335.11 -31.8987 341.257 -32.1301C342.724 -32.2627 343.325 -33.0204 342.874 -34.1947C342.795 -34.4005 342.755 -34.6019 342.751 -34.7969C334.846 -34.6088 327.158 -34.2308 323.544 -33.7046C315.967 -32.6017 313.808 -32.8025 315.463 -34.4561C316.877 -35.8692 326.857 -38.0644 331.171 -37.9109C333.432 -37.8304 335.745 -38.5133 336.311 -39.4284C336.877 -40.3434 339.438 -41.0325 342.003 -40.9596C342.635 -40.9416 343.279 -40.9565 343.902 -40.9986C342.987 -41.9198 343.72 -42.2999 346.508 -43.5693C347.043 -43.8129 347.554 -44.1004 348.018 -44.411C345.532 -44.4363 342.178 -44.3996 338.311 -44.2923C316.229 -43.6802 323.5 -45.7465 347.809 -46.9918C348.659 -47.0353 349.509 -47.0804 350.355 -47.1266C350.359 -47.1655 350.362 -47.2037 350.362 -47.2411C350.362 -48.2957 352.389 -49.5636 354.866 -50.0587C358.717 -50.8283 358.973 -51.1148 356.624 -52.0327C355.114 -52.6233 373.18 -53.0559 396.772 -52.9941C420.365 -52.9324 436.82 -52.4394 433.339 -51.8987C427.932 -51.0588 427.625 -50.8522 431.229 -50.4805C432.59 -50.3401 441.316 -50.1608 453.683 -49.9978C466.051 -50.1608 474.777 -50.3401 476.138 -50.4805C479.742 -50.8522 479.435 -51.0588 474.028 -51.8987C470.547 -52.4394 487.002 -52.9324 510.594 -52.9941C534.187 -53.0559 552.253 -52.6233 550.742 -52.0327C548.394 -51.1148 548.649 -50.8283 552.5 -50.0587C554.978 -49.5636 557.005 -48.2957 557.005 -47.2411C557.005 -47.2037 557.007 -47.1655 557.012 -47.1266C557.857 -47.0804 558.708 -47.0353 559.558 -46.9918C583.867 -45.7465 591.137 -43.6802 569.056 -44.2923C565.189 -44.3996 561.835 -44.4363 559.349 -44.411C559.813 -44.1004 560.324 -43.8129 560.859 -43.5693C563.647 -42.2999 564.38 -41.9198 563.465 -40.9986C564.088 -40.9565 564.731 -40.9416 565.364 -40.9596C567.929 -41.0325 570.49 -40.3434 571.056 -39.4284C571.622 -38.5133 573.935 -37.8304 576.196 -37.9109C579.155 -38.0162 584.78 -37.0163 588.478 -35.9219C588.962 -35.8099 589.334 -35.6918 589.597 -35.5672C590.729 -35.1807 591.564 -34.7958 591.904 -34.4561C591.987 -34.3734 592.06 -34.2944 592.123 -34.219C593.218 -33.8775 594.524 -33.6619 595.731 -33.6619C599.142 -33.6619 599.709 -33.1874 599.098 -30.8514C598.537 -28.7083 599.055 -28.0409 601.278 -28.0409C602.881 -28.0409 603.777 -27.6248 603.268 -27.1162C603.121 -26.9699 603.044 -26.7581 603.028 -26.5049C608.571 -26.1263 612.186 -25.6185 611.843 -25.0451C611.46 -24.4035 608.336 -23.4566 604.757 -22.8763C604.789 -22.6189 604.646 -22.5027 604.314 -22.5859C603.1 -22.8905 599.477 -21.3636 597.206 -19.907C597.119 -19.3407 596.381 -18.6193 595.29 -17.9571C595.366 -17.387 596.442 -17.2461 597.747 -17.6517C599.592 -18.2246 599.503 -17.9807 597.396 -16.6782C596.931 -16.3911 596.446 -16.0434 595.978 -15.6692C597.457 -15.7203 599.286 -15.8048 601.498 -15.9199C608.841 -16.3021 613.394 -16.2605 611.615 -15.8274C609.216 -15.2438 608.764 -14.5918 609.866 -13.306C611.007 -11.9738 609.489 -11.1903 603.318 -9.92677C594.637 -8.14904 589.132 -6.23089 588.383 -4.83174C589.947 -4.31231 591.067 -3.58716 591.067 -2.90665C591.067 -2.78027 590.589 -2.66652 589.725 -2.56882C589.634 -0.868446 585.064 1.08608 578.195 2.07295C573.767 2.70921 571.094 3.31745 572.256 3.42439C573.986 3.58378 573.937 3.87956 571.987 5.05573C570.677 5.84577 565.778 6.23259 561.1 5.9155C556.021 5.571 552.602 5.89137 552.615 6.71052C552.641 8.41233 530.069 8.77705 511.834 7.36982C485.226 5.31637 478.586 5.05653 482.983 6.2411C486.469 7.1801 485.767 7.3766 479.025 7.34978C474.518 7.33172 470.545 6.87094 470.196 6.32586C469.894 5.85311 468.623 5.45711 466.285 5.13233C463.001 5.60604 460.845 6.04907 460.534 6.36016C460.132 6.76153 458.221 7.0904 456.287 7.0904C451.86 7.0904 453.024 5.79302 458.31 4.83531C458.808 4.74507 459.295 4.64913 459.753 4.55208C452.743 4.14153 442.028 3.95024 427.023 3.94586C410.281 3.94093 401.116 3.54167 398.329 2.68068ZM584.788 -27.1675C589.014 -27.114 593.21 -26.9991 596.991 -26.8348C597.204 -27.8857 596.598 -28.6798 595.638 -28.603C594.671 -28.5257 590.241 -28.3483 585.793 -28.2091C583.852 -28.1482 582.396 -28.0761 581.362 -27.9727C582.896 -27.8532 584.155 -27.5533 584.788 -27.1675ZM339.014 -38.466C339.014 -38.8068 339.647 -39.4765 340.421 -39.9542C341.194 -40.4318 341.827 -40.153 341.827 -39.3345C341.827 -38.516 341.194 -37.8463 340.421 -37.8463C339.647 -37.8463 339.014 -38.1252 339.014 -38.466ZM545.051 -50.4935C544.573 -51.2664 544.852 -51.8987 545.671 -51.8987C546.49 -51.8987 547.161 -51.2664 547.161 -50.4935C547.161 -49.7206 546.882 -49.0882 546.54 -49.0882C546.199 -49.0882 545.529 -49.7206 545.051 -50.4935ZM504.617 -51.5405C511.772 -51.7955 523.48 -51.7955 530.636 -51.5405C537.791 -51.2854 531.936 -51.0768 517.626 -51.0768C503.316 -51.0768 497.462 -51.2854 504.617 -51.5405ZM568.353 -38.466C568.353 -38.8068 567.72 -39.4765 566.946 -39.9542C566.173 -40.4318 565.54 -40.153 565.54 -39.3345C565.54 -38.516 566.173 -37.8463 566.946 -37.8463C567.72 -37.8463 568.353 -38.1252 568.353 -38.466ZM362.316 -50.4935C362.794 -51.2664 362.515 -51.8987 361.695 -51.8987C360.876 -51.8987 360.206 -51.2664 360.206 -50.4935C360.206 -49.7206 360.485 -49.0882 360.826 -49.0882C361.167 -49.0882 361.838 -49.7206 362.316 -50.4935ZM402.75 -51.5405C395.594 -51.7955 383.886 -51.7955 376.731 -51.5405C369.576 -51.2854 375.43 -51.0768 389.74 -51.0768C404.05 -51.0768 409.905 -51.2854 402.75 -51.5405ZM361.172 0.121822C359.432 -0.21315 356.584 -0.21315 354.843 0.121822C353.103 0.456749 354.527 0.730797 358.007 0.730797C361.488 0.730797 362.912 0.456753 361.172 0.121822Z" fill="black"/>
<path d="M245.387 -59.9906C245.178 -59.9442 245.08 -59.7282 245.159 -59.2425C245.317 -58.2721 245.656 -57.5256 246.075 -56.8766C246.03 -56.7749 245.99 -56.6573 245.956 -56.5241C245.913 -56.3561 245.886 -56.1858 245.867 -56.0129C245.704 -55.8482 245.543 -55.6801 245.399 -55.4802C240.747 -55.39 236.096 -55.087 231.452 -54.6165C231.263 -54.5976 231.075 -54.5668 230.886 -54.546C227.993 -54.6771 225.099 -54.7913 222.204 -54.7889C219.895 -54.7864 217.134 -56.8326 215.281 -54.313C214.997 -53.926 214.914 -53.3398 214.962 -52.6776C210.513 -52.6237 206.063 -52.4862 201.623 -52C201.344 -52.1422 201.099 -52.1837 200.956 -51.9314C199.639 -51.7768 198.323 -51.5995 197.008 -51.3752C196.918 -51.3525 196.827 -51.3325 196.737 -51.3106C196.637 -51.325 196.537 -51.3375 196.437 -51.3517C196.529 -51.9533 195.721 -51.6115 195.364 -51.6827C192.409 -52.2726 190.021 -52.4618 186.999 -52.801C186.69 -52.8253 184.982 -53.4709 183.437 -53.2632C182.622 -53.7023 181.701 -54.4791 181.368 -53.3357C181.367 -53.3304 181.366 -53.3254 181.364 -53.3201C178.665 -53.8562 175.966 -54.3393 173.277 -53.8665C172.479 -53.7263 171.693 -53.4048 170.921 -52.9715C170.065 -53.1337 169.209 -53.3011 168.355 -53.4905C167.973 -53.5751 166.899 -54.2781 167.224 -53.9018C167.836 -53.1922 168.444 -52.431 169.056 -51.6809C168.192 -50.9729 167.354 -50.1512 166.55 -49.2719C165.405 -49.3462 162.801 -49.4964 162.716 -49.3992C162.677 -49.3554 162.645 -49.2994 162.608 -49.2523C162.174 -49.2872 161.593 -49.3351 161.553 -49.3385C161.091 -49.342 160.535 -49.3726 160.296 -49.0506C160.175 -49.0517 160.054 -49.0548 159.934 -49.0567C159 -48.9839 157.839 -49.954 157.131 -48.8373C156.945 -48.5431 156.806 -48.1766 156.702 -47.766C155.91 -48.0266 155.15 -48.1393 154.584 -47.3861C153.707 -47.3348 152.888 -46.9092 154.035 -44.8126C153.796 -44.4511 153.642 -44.1364 153.56 -43.8647C153.32 -43.8615 153.079 -43.8665 152.839 -43.8628C151.035 -43.8347 149.233 -43.7737 147.43 -43.7217C146.428 -43.6926 145.272 -44.5742 144.412 -43.6884C143.893 -43.6778 143.373 -43.6459 142.856 -43.5611C143.098 -42.6542 143.224 -41.5595 143.418 -40.5744C143.313 -39.866 143.212 -39.1515 143.056 -38.5258C143.425 -38.5129 143.795 -38.5205 144.165 -38.522C144.185 -38.4955 144.2 -38.4607 144.222 -38.4358C145.094 -37.4119 146.294 -38.3446 147.33 -38.3105C147.69 -38.2984 148.051 -38.2912 148.411 -38.279C149.608 -38.1158 150.803 -37.9131 151.997 -37.6895C151.978 -37.6259 151.963 -37.5601 151.946 -37.4956C150.363 -37.182 148.765 -36.8132 147.387 -36.442C146.536 -36.2127 145.662 -36.1297 144.845 -35.637C144.474 -35.4135 143.644 -34.8646 143.911 -34.3444C144.214 -33.7545 144.567 -33.2765 144.941 -32.8481C144.572 -32.8371 144.076 -32.8319 143.815 -32.8167C142.773 -32.7561 141.736 -32.5438 140.697 -32.4074C140.416 -30.8695 139.08 -28.586 139.854 -27.7951C140.098 -27.5451 140.486 -27.3074 140.94 -27.0783C140.931 -27.0521 140.925 -27.0217 140.916 -26.9961C140.975 -26.9978 141.035 -26.9964 141.094 -26.998C144.058 -25.5817 150.461 -24.5852 154.657 -24.0407C154.631 -23.7867 154.616 -23.5321 154.612 -23.2788C154.576 -23.2225 154.539 -23.1675 154.504 -23.1065C153.89 -23.3278 153.84 -23.2851 154.338 -22.8166C154.213 -22.5747 154.088 -22.3327 153.962 -22.0959C152.049 -22.1579 149.929 -22.1914 149.542 -22.1997C149.134 -20.7998 147.836 -19.3127 148.312 -18.0007C146.454 -18.0607 144.596 -18.0761 142.741 -17.9852C142.942 -16.988 142.982 -15.7369 143.119 -14.6381C143.098 -14.5498 143.076 -14.464 143.056 -14.3756C141.467 -14.2596 139.88 -14.1074 138.295 -13.8449C137.508 -13.7146 136.508 -14.3412 135.94 -13.3357C135.906 -13.2749 135.879 -13.2027 135.848 -13.1379C135.722 -13.1171 135.596 -13.1064 135.47 -13.0811C135.643 -13.0546 135.723 -13.0436 135.799 -13.0321C135.775 -12.9796 135.748 -12.9322 135.726 -12.8774C135.431 -12.7021 134.988 -12.25 135.285 -11.0247C135.163 -10.1018 135.127 -9.1067 135.104 -8.19466C135.093 -7.76223 135.571 -8.06123 135.805 -7.9949C136.087 -8.03015 136.368 -8.05428 136.65 -8.07323C136.648 -8.05883 136.644 -8.04784 136.644 -8.03212C136.457 -2.27809 136.979 -3.20911 138.817 -3.23185C139.838 -3.30405 140.853 -3.40448 141.868 -3.62355C142.026 -3.65765 143.254 -3.987 143.439 -4.02112C143.691 -4.06895 143.944 -4.08942 144.196 -4.12296C144.424 -3.82708 144.669 -3.589 144.924 -3.39048C144.818 -3.22778 144.766 -3.04905 144.84 -2.82252C145.058 -2.15379 145.51 -2.34188 146.034 -2.79295C146.734 -2.55359 147.47 -2.50413 148.176 -2.50508C148.153 -2.30508 148.147 -2.09924 148.185 -1.88032C148.301 -1.21101 148.604 -0.815372 148.976 -0.532879C148.974 0.0438576 149.25 0.12096 149.705 -0.123547C149.767 -0.0958786 149.825 -0.0603333 149.886 -0.0334625C149.962 0.379692 150.051 0.775314 150.161 1.14358C150.124 1.54284 150.087 1.94007 150.036 2.31084C150.013 2.48177 150.23 2.30289 150.326 2.2991C150.431 2.29114 150.535 2.28355 150.639 2.27559C150.681 2.34578 150.719 2.42326 150.764 2.48712C151.453 3.44767 152.495 2.62598 153.36 2.66729C156.945 2.83935 156.939 2.77803 160.598 2.71626C161.66 2.66774 162.722 2.63425 163.783 2.57133C166.784 2.39332 169.781 2.0964 172.783 1.95049C175.635 1.81178 178.512 1.732 181.364 1.64104C186.083 1.38678 190.805 1.43975 195.526 1.41975C195.532 1.42091 195.539 1.4225 195.546 1.42353C195.53 2.15287 196.078 2.35335 196.655 2.38712C197.221 3.13993 197.981 3.02559 198.772 2.76512C198.876 3.17634 199.016 3.54181 199.203 3.83641C199.911 4.95303 201.07 3.98301 202.004 4.05577C202.125 4.05408 202.245 4.05296 202.366 4.05199C202.605 4.37314 203.162 4.34138 203.623 4.33794C203.663 4.33452 204.245 4.28651 204.679 4.25175C204.716 4.29883 204.749 4.3548 204.787 4.39864C204.872 4.4959 207.478 4.34752 208.623 4.27332C209.426 5.15182 210.262 5.97485 211.125 6.68226C210.514 7.43199 209.906 8.19207 209.294 8.90123C208.97 9.27757 210.043 8.5745 210.425 8.48994C211.28 8.30057 212.136 8.13313 212.993 7.97094C213.764 8.4041 214.55 8.72572 215.348 8.86597C218.036 9.33862 220.735 8.85536 223.434 8.31956C223.436 8.32561 223.437 8.3313 223.439 8.33736C223.772 9.48183 224.694 8.70185 225.51 8.26294C227.054 8.46983 228.761 7.82498 229.07 7.80074C232.093 7.46154 234.479 7.2743 237.434 6.68439C237.792 6.61322 238.601 6.95335 238.508 6.35144C238.608 6.33704 238.708 6.32454 238.807 6.31033C238.897 6.33231 238.988 6.35217 239.078 6.37495C240.145 6.55687 241.212 6.70773 242.28 6.84303C242.281 6.88236 242.281 6.92545 242.282 6.96445C242.289 7.27287 242.469 7.16211 242.714 6.89787C242.818 6.91038 242.922 6.91908 243.026 6.93121C243.09 7.0454 243.175 7.09896 243.274 7.1114C243.565 7.30002 243.901 7.19973 244.245 7.05654C248.502 7.49573 252.767 7.62763 257.032 7.67935C256.985 8.3407 257.068 8.92613 257.353 9.31273C259.206 11.8324 261.966 9.78614 264.275 9.78864C267.169 9.79111 270.061 9.67684 272.954 9.54578C273.144 9.56663 273.332 9.59737 273.522 9.61628C278.165 10.0867 282.817 10.3897 287.468 10.48C287.612 10.6807 287.775 10.8493 287.938 11.0146C287.957 11.187 287.985 11.3584 288.027 11.5258C288.061 11.659 288.101 11.7747 288.146 11.8764C287.727 12.5255 287.388 13.2714 287.23 14.2422C286.913 16.1851 289.433 13.8048 290.535 13.5842C290.721 13.547 291.166 13.4602 291.425 13.4099C291.536 13.4994 291.651 13.5802 291.756 13.6801C294.166 13.4064 296.576 13.0935 298.985 12.7714C300.421 14.0485 302.201 12.4094 303.804 12.1956C310.291 11.3297 313.354 10.7777 318.247 9.89438C318.489 9.91522 318.731 9.94225 318.974 9.95312C319.612 9.98193 320.458 10.7721 320.888 9.91003C320.919 9.84758 320.94 9.7947 320.97 9.73376C321.2 9.71936 321.378 9.60881 321.464 9.32053C321.735 9.27205 321.806 9.25984 322.092 9.20887C324.069 8.73372 326.184 9.1097 328.105 8.28838C329.256 8.46992 330.409 8.6457 331.146 7.45211C332.387 7.41164 333.628 7.40374 334.87 7.503C335.553 7.53294 336.237 7.57536 336.92 7.61269C336.951 7.6396 336.98 7.67067 337.014 7.68906C337.206 7.79225 337.399 7.8729 337.593 7.94366C337.633 7.99907 337.674 8.04788 337.715 8.09253C337.709 8.14074 337.709 8.19436 337.703 8.24136C337.753 8.2334 337.804 8.22392 337.854 8.21597C338.228 8.50646 338.659 8.43931 339.111 8.24932C340.183 8.64948 341.307 8.29995 342.433 7.90853C345.548 8.06282 348.663 8.14274 351.778 7.91459C354.88 7.68606 354.722 7.73143 357.681 7.39168C357.99 7.35606 358.299 7.32008 358.608 7.28396C358.791 7.30746 358.973 7.34278 359.156 7.36427C361.982 7.77229 364.803 7.31352 367.625 7.11948C370.567 6.92884 373.512 6.99582 376.45 6.63573C376.439 6.57517 376.437 6.52697 376.437 6.481C376.716 6.58833 377.006 6.72646 377.144 6.43596C377.455 6.60878 377.76 6.76872 377.782 6.41058C377.82 5.79971 377.855 5.16055 377.874 4.52258C378.333 4.38948 378.79 4.27276 379.244 4.21704C381.325 3.96161 383.407 3.72186 385.484 3.38077C386.88 3.15148 388.28 2.9492 389.66 2.50532C390.075 2.37191 391.11 2.24667 390.836 1.65926C390.303 0.51265 389.623 -0.338997 388.911 -1.12767C389.238 -1.73209 389.556 -2.35225 389.846 -3.01566C390.204 -3.12719 390.471 -3.37859 390.484 -3.98316C390.485 -4.01575 390.484 -4.04485 390.484 -4.07714C390.613 -4.09193 390.734 -4.09912 390.863 -4.11428C391.878 -4.23329 392.98 -3.77508 393.905 -4.54906C394.041 -4.66238 394.202 -4.84479 394.364 -5.05631C395.223 -5.04532 396.345 -4.96672 397.239 -5.41666C397.83 -5.24252 398.555 -4.80362 398.662 -5.67714C398.716 -6.1174 398.746 -6.5131 398.765 -6.8875C398.925 -6.93824 399.095 -6.9817 399.273 -7.02066C399.678 -6.79744 400.054 -6.65503 400.174 -7.23219C400.175 -7.23788 400.176 -7.24241 400.178 -7.24772C401.418 -7.61754 402.34 -8.48437 400.469 -12.4475C400.07 -13.2941 399.253 -12.6903 398.643 -12.757C397.719 -12.8582 396.794 -12.891 395.869 -12.9509C395.255 -12.9907 394.578 -13.4546 393.969 -13.4522C393.928 -13.6736 393.725 -13.6138 393.518 -13.5443C392.935 -14.0138 392.375 -14.4435 391.843 -14.8173C392.693 -15.6059 393.6 -16.5259 394.595 -17.618C395.148 -18.2252 393.307 -17.7486 392.663 -17.8138C391.534 -17.7249 390.404 -17.6531 389.275 -17.5768C389.233 -17.7444 389.189 -17.9106 389.142 -18.0743C391.687 -18.4752 394.233 -18.8644 396.777 -19.2768C397.344 -19.5993 398.97 -19.6422 398.477 -20.2443C397.475 -21.4655 396.537 -22.4454 395.636 -23.2565C396.319 -23.8636 397.046 -24.5348 397.873 -25.3383C398.29 -25.7441 396.927 -25.269 396.455 -25.2345C395.447 -25.1445 394.44 -25.0375 393.432 -24.9427C392.723 -25.3792 392.029 -25.6953 391.338 -25.9376C391.207 -26.4804 391.007 -27.0153 390.77 -27.4652C391.789 -27.5899 392.792 -27.8099 393.746 -28.3231C394.669 -28.1629 395.613 -27.9762 396.015 -29.2436C396.244 -29.9674 396.154 -30.9237 395.907 -31.8092C395.96 -32.2175 395.979 -32.6255 395.971 -33.0195C398.215 -33.2114 400.748 -33.7462 402.75 -35.3384C403.165 -35.386 403.58 -35.4295 403.995 -35.4774C404.73 -35.6222 406.574 -34.7464 406.2 -35.9122C405.897 -36.857 405.521 -37.6416 405.092 -38.3016C405.495 -39.134 405.814 -40.088 406.014 -41.1982C406.25 -42.5053 404.51 -41.3053 403.758 -41.3588C402.684 -41.3123 401.611 -41.2436 400.538 -41.1903C399.27 -41.3674 397.944 -41.2434 396.666 -40.9886C395.938 -40.947 395.211 -40.9158 394.483 -40.8711C394.631 -41.8894 394.669 -43.0149 394.774 -44.034C394.808 -44.3724 394.307 -44.0602 393.921 -43.8676C393.897 -43.9393 393.879 -44.016 393.852 -44.0849C393.691 -44.4871 393.412 -44.4832 393.11 -44.3924C391.299 -44.712 389.489 -45.0767 387.676 -45.3619C387.658 -45.8348 387.642 -46.3075 387.639 -46.7779C387.153 -46.873 386.669 -46.9941 386.182 -47.0638C385.139 -47.2124 381.424 -47.5649 380.581 -47.6494C376.507 -48.0578 372.437 -48.3825 368.359 -48.611C365.5 -48.7037 362.639 -48.8026 359.779 -48.8323C360.519 -49.0179 361.259 -49.1908 362.001 -49.3357C363.272 -49.7088 365.17 -49.6596 363.573 -53.5562C363.651 -54.4315 363.415 -54.7098 363.043 -54.7333C363.013 -54.7945 362.991 -54.8468 362.96 -54.9095C362.53 -55.7716 361.685 -54.9794 361.047 -54.9506C360.154 -54.9105 359.262 -54.7865 358.369 -54.7039C357.403 -54.5872 356.434 -54.4985 355.469 -54.3533C352.015 -53.8331 353.096 -53.8158 349.661 -53.3349C348.445 -53.1647 347.227 -53.061 346.011 -52.9119C342.238 -52.4496 341.344 -52.3072 337.559 -51.7779C336.935 -51.6945 336.311 -51.6135 335.688 -51.5292C335.611 -51.7181 335.363 -51.5912 335.108 -51.4508C335.095 -51.449 335.081 -51.4487 335.068 -51.447C334.927 -51.7219 334.641 -51.5862 334.367 -51.4804C334.368 -51.5263 334.371 -51.5745 334.379 -51.6351C331.441 -51.9952 328.496 -51.9262 325.554 -52.1169C322.732 -52.3109 319.911 -52.7717 317.085 -52.3636C316.903 -52.342 316.721 -52.3069 316.538 -52.2833C316.229 -52.3193 315.921 -52.3556 315.612 -52.391C312.653 -52.7308 312.81 -52.6854 309.708 -52.914C306.593 -53.1423 303.477 -53.0624 300.362 -52.9083C299.237 -53.2995 298.113 -53.6487 297.042 -53.2491C296.589 -53.4395 296.156 -53.5063 295.782 -53.2138C295.732 -53.2218 295.683 -53.2313 295.633 -53.2392C295.639 -53.1921 295.641 -53.1387 295.645 -53.0904C295.604 -53.0465 295.563 -52.9979 295.524 -52.9435C295.33 -52.8727 295.136 -52.7901 294.944 -52.6869C294.909 -52.6683 294.88 -52.6374 294.849 -52.6105C294.167 -52.5734 293.484 -52.5308 292.801 -52.5009C291.559 -52.4016 290.318 -52.4114 289.077 -52.4519C288.34 -53.6453 287.188 -53.4676 286.038 -53.2862C284.116 -54.109 282 -53.7333 280.022 -54.2087C271.611 -55.7044 269.929 -56.1015 261.733 -57.1954C260.13 -57.4092 258.35 -59.0482 256.915 -57.7692C254.506 -58.0913 252.097 -58.4042 249.687 -58.6779C249.582 -58.578 249.466 -58.4972 249.356 -58.4077C249.097 -58.458 248.652 -58.5447 248.466 -58.582C247.639 -58.7475 246.015 -60.1296 245.388 -59.9901L245.387 -59.9906ZM388.737 -2.91823C388.544 -2.88829 388.351 -2.86423 388.159 -2.83599C388.163 -2.84357 388.169 -2.85001 388.173 -2.85759C388.339 -2.90228 388.533 -2.91451 388.737 -2.9183L388.737 -2.91823Z" fill="black"/>
</g>
<defs>
<clipPath id="clip0_838_133">
<rect width="564" height="15" fill="white"/>
</clipPath>
</defs>
</svg>
