<svg width="68" height="30" viewBox="0 0 68 30" fill="none" xmlns="http://www.w3.org/2000/svg">
<g clip-path="url(#clip0_187_8)">
<path d="M0 30L6.63415 15L0 0L68 0L61.9187 15L68 30L0 30Z" fill="#C91F37"/>
<path d="M5 27L10.2252 15L5 3L63 3L58.2973 15L63 27L5 27Z" fill="white"/>
<path d="M17.99 13.124C17.99 12.944 17.93 12.788 17.81 12.656C17.69 12.524 17.57 12.41 17.45 12.314C17.33 12.218 17.246 12.152 17.198 12.116C17.114 12.056 17.072 11.996 17.072 11.936C17.072 11.864 17.108 11.804 17.18 11.756L18.62 10.496C18.716 10.4 18.794 10.352 18.854 10.352C18.902 10.352 18.986 10.4 19.106 10.496L20.582 11.63C20.678 11.702 20.738 11.738 20.762 11.738C20.81 11.738 20.87 11.702 20.942 11.63L22.4 10.496C22.424 10.484 22.46 10.46 22.508 10.424C22.556 10.388 22.604 10.37 22.652 10.37C22.7 10.37 22.784 10.412 22.904 10.496L24.524 11.63C24.62 11.69 24.686 11.72 24.722 11.72C24.758 11.72 24.818 11.69 24.902 11.63L26.198 10.496C26.294 10.4 26.372 10.352 26.432 10.352C26.492 10.352 26.582 10.4 26.702 10.496L28.322 11.774C28.394 11.822 28.43 11.882 28.43 11.954C28.43 12.014 28.394 12.08 28.322 12.152C28.034 12.416 27.89 12.752 27.89 13.16V17.12C27.89 17.336 27.968 17.516 28.124 17.66C28.28 17.804 28.472 17.948 28.7 18.092C28.796 18.164 28.844 18.23 28.844 18.29C28.844 18.35 28.796 18.446 28.7 18.578L27.602 19.856C27.506 19.976 27.416 20.036 27.332 20.036C27.272 20.036 27.182 19.988 27.062 19.892L25.352 18.506C25.28 18.446 25.244 18.38 25.244 18.308C25.244 18.236 25.286 18.164 25.37 18.092C25.526 17.948 25.652 17.804 25.748 17.66C25.856 17.516 25.91 17.336 25.91 17.12V13.484C25.91 13.196 25.814 12.974 25.622 12.818C25.43 12.65 25.196 12.566 24.92 12.566C24.656 12.566 24.422 12.65 24.218 12.818C24.026 12.974 23.93 13.196 23.93 13.484V17.12C23.93 17.336 24.008 17.516 24.164 17.66C24.32 17.804 24.512 17.948 24.74 18.092C24.836 18.164 24.884 18.23 24.884 18.29C24.884 18.35 24.836 18.446 24.74 18.578L23.642 19.856C23.546 19.976 23.456 20.036 23.372 20.036C23.312 20.036 23.222 19.988 23.102 19.892L21.392 18.506C21.32 18.446 21.284 18.38 21.284 18.308C21.284 18.236 21.326 18.164 21.41 18.092C21.566 17.948 21.692 17.804 21.788 17.66C21.896 17.516 21.95 17.336 21.95 17.12V13.484C21.95 13.196 21.854 12.974 21.662 12.818C21.47 12.65 21.236 12.566 20.96 12.566C20.696 12.566 20.462 12.65 20.258 12.818C20.066 12.974 19.97 13.196 19.97 13.484V17.12C19.97 17.336 20.048 17.516 20.204 17.66C20.36 17.804 20.552 17.948 20.78 18.092C20.876 18.164 20.924 18.23 20.924 18.29C20.924 18.35 20.876 18.446 20.78 18.578L19.682 19.856C19.586 19.976 19.496 20.036 19.412 20.036C19.352 20.036 19.262 19.988 19.142 19.892L17.432 18.506C17.36 18.446 17.324 18.38 17.324 18.308C17.324 18.236 17.366 18.164 17.45 18.092C17.606 17.948 17.732 17.804 17.828 17.66C17.936 17.516 17.99 17.336 17.99 17.12V13.124ZM31.5652 10.496C31.6612 10.424 31.7452 10.388 31.8172 10.388C31.9132 10.388 32.0212 10.424 32.1412 10.496L34.5892 11.792C34.6612 11.828 34.6972 11.882 34.6972 11.954C34.6972 12.038 34.6612 12.128 34.5892 12.224L31.8352 16.454V16.832C31.8352 16.94 31.8772 17.018 31.9612 17.066L34.6252 18.146C34.6972 18.182 34.7332 18.236 34.7332 18.308C34.7332 18.38 34.6972 18.452 34.6252 18.524L33.2932 20C33.2572 20.036 33.2092 20.054 33.1492 20.054C33.1012 20.054 33.0292 20.036 32.9332 20L29.2972 18.488C29.2132 18.452 29.1712 18.398 29.1712 18.326C29.1712 18.23 29.2192 18.146 29.3152 18.074C29.6752 17.75 29.8552 17.42 29.8552 17.084V13.16C29.8552 12.944 29.8012 12.746 29.6932 12.566C29.5852 12.386 29.4652 12.242 29.3332 12.134C29.2612 12.074 29.2252 12.014 29.2252 11.954C29.2252 11.882 29.2552 11.834 29.3152 11.81C29.7592 11.618 30.1432 11.426 30.4672 11.234C30.7912 11.042 31.1572 10.796 31.5652 10.496ZM31.8352 15.302C31.8352 15.41 31.8472 15.464 31.8712 15.464C31.8952 15.464 31.9372 15.416 31.9972 15.32L33.2212 13.466C33.2572 13.406 33.2392 13.358 33.1672 13.322L31.9972 12.71L31.9072 12.674C31.8592 12.674 31.8352 12.746 31.8352 12.89V15.302ZM38.2832 11.63C38.3792 11.702 38.4392 11.738 38.4632 11.738C38.5112 11.738 38.5712 11.702 38.6432 11.63L39.9392 10.496C40.0352 10.4 40.1132 10.352 40.1732 10.352C40.2332 10.352 40.3232 10.4 40.4432 10.496L42.0632 11.774C42.1352 11.822 42.1712 11.882 42.1712 11.954C42.1712 12.014 42.1352 12.08 42.0632 12.152C41.7752 12.416 41.6312 12.752 41.6312 13.16V17.12C41.6312 17.336 41.7092 17.516 41.8652 17.66C42.0212 17.804 42.2132 17.948 42.4412 18.092C42.5372 18.164 42.5852 18.23 42.5852 18.29C42.5852 18.35 42.5372 18.446 42.4412 18.578L41.3432 19.856C41.2472 19.976 41.1572 20.036 41.0732 20.036C41.0132 20.036 40.9232 19.988 40.8032 19.892L39.0932 18.506C39.0212 18.446 38.9852 18.38 38.9852 18.308C38.9852 18.236 39.0272 18.164 39.1112 18.092C39.2672 17.948 39.3932 17.804 39.4892 17.66C39.5972 17.516 39.6512 17.336 39.6512 17.12V13.484C39.6512 13.196 39.5552 12.974 39.3632 12.818C39.1712 12.65 38.9372 12.566 38.6612 12.566C38.3972 12.566 38.1632 12.65 37.9592 12.818C37.7672 12.974 37.6712 13.196 37.6712 13.484V17.12C37.6712 17.336 37.7492 17.516 37.9052 17.66C38.0612 17.804 38.2532 17.948 38.4812 18.092C38.5772 18.164 38.6252 18.23 38.6252 18.29C38.6252 18.35 38.5772 18.446 38.4812 18.578L37.3832 19.856C37.2872 19.976 37.1972 20.036 37.1132 20.036C37.0532 20.036 36.9632 19.988 36.8432 19.892L35.1332 18.506C35.0612 18.446 35.0252 18.38 35.0252 18.308C35.0252 18.236 35.0672 18.164 35.1512 18.092C35.3072 17.948 35.4332 17.804 35.5292 17.66C35.6372 17.516 35.6912 17.336 35.6912 17.12V13.124C35.6912 12.944 35.6312 12.788 35.5112 12.656C35.3912 12.524 35.2712 12.41 35.1512 12.314C35.0312 12.218 34.9472 12.152 34.8992 12.116C34.8152 12.056 34.7732 11.996 34.7732 11.936C34.7732 11.864 34.8092 11.804 34.8812 11.756L36.3212 10.496C36.4172 10.4 36.4952 10.352 36.5552 10.352C36.6032 10.352 36.6872 10.4 36.8072 10.496L38.2832 11.63ZM47.5789 13.124C47.5789 12.944 47.5189 12.788 47.3989 12.656C47.2789 12.524 47.1589 12.41 47.0389 12.314C46.9189 12.218 46.8349 12.152 46.7869 12.116C46.7149 12.056 46.6789 11.996 46.6789 11.936C46.6789 11.9 46.7089 11.84 46.7689 11.756L47.9029 10.46C47.9629 10.388 48.0229 10.352 48.0829 10.352C48.1429 10.352 48.2209 10.388 48.3169 10.46L49.9909 11.774C50.0629 11.822 50.0989 11.882 50.0989 11.954C50.0989 12.014 50.0629 12.08 49.9909 12.152C49.7029 12.416 49.5589 12.752 49.5589 13.16V17.12C49.5589 17.276 49.6069 17.42 49.7029 17.552C49.7989 17.672 49.9069 17.786 50.0269 17.894C50.1469 17.99 50.2309 18.062 50.2789 18.11C50.3509 18.182 50.3869 18.248 50.3869 18.308C50.3869 18.38 50.3509 18.452 50.2789 18.524L48.9469 19.928C48.8869 19.988 48.8149 20.018 48.7309 20.018C48.6469 20.018 48.5629 19.988 48.4789 19.928L46.9489 18.56C46.8649 18.5 46.8169 18.47 46.8049 18.47C46.7929 18.47 46.7449 18.5 46.6609 18.56L45.2569 19.928C45.1729 19.988 45.1009 20.018 45.0409 20.018C44.9809 20.018 44.9029 19.988 44.8069 19.928L43.0789 18.524C43.0069 18.452 42.9709 18.38 42.9709 18.308C42.9709 18.248 43.0069 18.182 43.0789 18.11C43.4389 17.786 43.6189 17.456 43.6189 17.12V13.124C43.6189 12.944 43.5589 12.788 43.4389 12.656C43.3189 12.524 43.1989 12.41 43.0789 12.314C42.9589 12.218 42.8749 12.152 42.8269 12.116C42.7549 12.056 42.7189 11.996 42.7189 11.936C42.7189 11.9 42.7489 11.84 42.8089 11.756L43.9429 10.46C43.9909 10.388 44.0509 10.352 44.1229 10.352C44.1829 10.352 44.2609 10.388 44.3569 10.46L46.0309 11.774C46.1029 11.822 46.1389 11.882 46.1389 11.954C46.1389 12.014 46.1029 12.08 46.0309 12.152C45.7429 12.416 45.5989 12.752 45.5989 13.16V16.922C45.5989 17.21 45.6949 17.438 45.8869 17.606C46.0909 17.762 46.3249 17.84 46.5889 17.84C46.8649 17.84 47.0989 17.762 47.2909 17.606C47.4829 17.438 47.5789 17.21 47.5789 16.922V13.124Z" fill="black"/>
</g>
<defs>
<clipPath id="clip0_187_8">
<rect width="30" height="68" fill="white" transform="matrix(0 -1 1 0 0 30)"/>
</clipPath>
</defs>
</svg>
