<svg width="30" height="123" viewBox="0 0 30 123" fill="none" xmlns="http://www.w3.org/2000/svg">
<g clip-path="url(#clip0_187_8)">
<path d="M0 0H30V123L15 112L0 123V0Z" fill="#C91F37"/>
<path d="M3 -1H27V117L15 108L3 117V-1Z" fill="white"/>
<path d="M16.876 68.99C17.056 68.99 17.212 68.93 17.344 68.81C17.476 68.69 17.59 68.57 17.686 68.45C17.782 68.33 17.848 68.246 17.884 68.198C17.944 68.114 18.004 68.072 18.064 68.072C18.136 68.072 18.196 68.108 18.244 68.18L19.504 69.62C19.6 69.716 19.648 69.794 19.648 69.854C19.648 69.902 19.6 69.986 19.504 70.106L18.37 71.582C18.298 71.678 18.262 71.738 18.262 71.762C18.262 71.81 18.298 71.87 18.37 71.942L19.504 73.4C19.516 73.424 19.54 73.46 19.576 73.508C19.612 73.556 19.63 73.604 19.63 73.652C19.63 73.7 19.588 73.784 19.504 73.904L18.37 75.524C18.31 75.62 18.28 75.686 18.28 75.722C18.28 75.758 18.31 75.818 18.37 75.902L19.504 77.198C19.6 77.294 19.648 77.372 19.648 77.432C19.648 77.492 19.6 77.582 19.504 77.702L18.226 79.322C18.178 79.394 18.118 79.43 18.046 79.43C17.986 79.43 17.92 79.394 17.848 79.322C17.584 79.034 17.248 78.89 16.84 78.89H12.88C12.664 78.89 12.484 78.968 12.34 79.124C12.196 79.28 12.052 79.472 11.908 79.7C11.836 79.796 11.77 79.844 11.71 79.844C11.65 79.844 11.554 79.796 11.422 79.7L10.144 78.602C10.024 78.506 9.964 78.416 9.964 78.332C9.964 78.272 10.012 78.182 10.108 78.062L11.494 76.352C11.554 76.28 11.62 76.244 11.692 76.244C11.764 76.244 11.836 76.286 11.908 76.37C12.052 76.526 12.196 76.652 12.34 76.748C12.484 76.856 12.664 76.91 12.88 76.91H16.516C16.804 76.91 17.026 76.814 17.182 76.622C17.35 76.43 17.434 76.196 17.434 75.92C17.434 75.656 17.35 75.422 17.182 75.218C17.026 75.026 16.804 74.93 16.516 74.93H12.88C12.664 74.93 12.484 75.008 12.34 75.164C12.196 75.32 12.052 75.512 11.908 75.74C11.836 75.836 11.77 75.884 11.71 75.884C11.65 75.884 11.554 75.836 11.422 75.74L10.144 74.642C10.024 74.546 9.964 74.456 9.964 74.372C9.964 74.312 10.012 74.222 10.108 74.102L11.494 72.392C11.554 72.32 11.62 72.284 11.692 72.284C11.764 72.284 11.836 72.326 11.908 72.41C12.052 72.566 12.196 72.692 12.34 72.788C12.484 72.896 12.664 72.95 12.88 72.95H16.516C16.804 72.95 17.026 72.854 17.182 72.662C17.35 72.47 17.434 72.236 17.434 71.96C17.434 71.696 17.35 71.462 17.182 71.258C17.026 71.066 16.804 70.97 16.516 70.97H12.88C12.664 70.97 12.484 71.048 12.34 71.204C12.196 71.36 12.052 71.552 11.908 71.78C11.836 71.876 11.77 71.924 11.71 71.924C11.65 71.924 11.554 71.876 11.422 71.78L10.144 70.682C10.024 70.586 9.964 70.496 9.964 70.412C9.964 70.352 10.012 70.262 10.108 70.142L11.494 68.432C11.554 68.36 11.62 68.324 11.692 68.324C11.764 68.324 11.836 68.366 11.908 68.45C12.052 68.606 12.196 68.732 12.34 68.828C12.484 68.936 12.664 68.99 12.88 68.99H16.876ZM19.504 82.5652C19.576 82.6612 19.612 82.7452 19.612 82.8172C19.612 82.9132 19.576 83.0212 19.504 83.1412L18.208 85.5892C18.172 85.6612 18.118 85.6972 18.046 85.6972C17.962 85.6972 17.872 85.6612 17.776 85.5892L13.546 82.8352H13.168C13.06 82.8352 12.982 82.8772 12.934 82.9612L11.854 85.6252C11.818 85.6972 11.764 85.7332 11.692 85.7332C11.62 85.7332 11.548 85.6972 11.476 85.6252L10 84.2932C9.964 84.2572 9.946 84.2092 9.946 84.1492C9.946 84.1012 9.964 84.0292 10 83.9332L11.512 80.2972C11.548 80.2132 11.602 80.1712 11.674 80.1712C11.77 80.1712 11.854 80.2192 11.926 80.3152C12.25 80.6752 12.58 80.8552 12.916 80.8552H16.84C17.056 80.8552 17.254 80.8012 17.434 80.6932C17.614 80.5852 17.758 80.4652 17.866 80.3332C17.926 80.2612 17.986 80.2252 18.046 80.2252C18.118 80.2252 18.166 80.2552 18.19 80.3152C18.382 80.7592 18.574 81.1432 18.766 81.4672C18.958 81.7912 19.204 82.1572 19.504 82.5652ZM14.698 82.8352C14.59 82.8352 14.536 82.8472 14.536 82.8712C14.536 82.8952 14.584 82.9372 14.68 82.9972L16.534 84.2212C16.594 84.2572 16.642 84.2392 16.678 84.1672L17.29 82.9972L17.326 82.9072C17.326 82.8592 17.254 82.8352 17.11 82.8352H14.698ZM18.37 89.2832C18.298 89.3792 18.262 89.4392 18.262 89.4632C18.262 89.5112 18.298 89.5712 18.37 89.6432L19.504 90.9392C19.6 91.0352 19.648 91.1132 19.648 91.1732C19.648 91.2332 19.6 91.3232 19.504 91.4432L18.226 93.0632C18.178 93.1352 18.118 93.1712 18.046 93.1712C17.986 93.1712 17.92 93.1352 17.848 93.0632C17.584 92.7752 17.248 92.6312 16.84 92.6312H12.88C12.664 92.6312 12.484 92.7092 12.34 92.8652C12.196 93.0212 12.052 93.2132 11.908 93.4412C11.836 93.5372 11.77 93.5852 11.71 93.5852C11.65 93.5852 11.554 93.5372 11.422 93.4412L10.144 92.3432C10.024 92.2472 9.964 92.1572 9.964 92.0732C9.964 92.0132 10.012 91.9232 10.108 91.8032L11.494 90.0932C11.554 90.0212 11.62 89.9852 11.692 89.9852C11.764 89.9852 11.836 90.0272 11.908 90.1112C12.052 90.2672 12.196 90.3932 12.34 90.4892C12.484 90.5972 12.664 90.6512 12.88 90.6512H16.516C16.804 90.6512 17.026 90.5552 17.182 90.3632C17.35 90.1712 17.434 89.9372 17.434 89.6612C17.434 89.3972 17.35 89.1632 17.182 88.9592C17.026 88.7672 16.804 88.6712 16.516 88.6712H12.88C12.664 88.6712 12.484 88.7492 12.34 88.9052C12.196 89.0612 12.052 89.2532 11.908 89.4812C11.836 89.5772 11.77 89.6252 11.71 89.6252C11.65 89.6252 11.554 89.5772 11.422 89.4812L10.144 88.3832C10.024 88.2872 9.964 88.1972 9.964 88.1132C9.964 88.0532 10.012 87.9632 10.108 87.8432L11.494 86.1332C11.554 86.0612 11.62 86.0252 11.692 86.0252C11.764 86.0252 11.836 86.0672 11.908 86.1512C12.052 86.3072 12.196 86.4332 12.34 86.5292C12.484 86.6372 12.664 86.6912 12.88 86.6912H16.876C17.056 86.6912 17.212 86.6312 17.344 86.5112C17.476 86.3912 17.59 86.2712 17.686 86.1512C17.782 86.0312 17.848 85.9472 17.884 85.8992C17.944 85.8152 18.004 85.7732 18.064 85.7732C18.136 85.7732 18.196 85.8092 18.244 85.8812L19.504 87.3212C19.6 87.4172 19.648 87.4952 19.648 87.5552C19.648 87.6032 19.6 87.6872 19.504 87.8072L18.37 89.2832ZM16.876 98.5789C17.056 98.5789 17.212 98.5189 17.344 98.3989C17.476 98.2789 17.59 98.1589 17.686 98.0389C17.782 97.9189 17.848 97.8349 17.884 97.7869C17.944 97.7149 18.004 97.6789 18.064 97.6789C18.1 97.6789 18.16 97.7089 18.244 97.7689L19.54 98.9029C19.612 98.9629 19.648 99.0229 19.648 99.0829C19.648 99.1429 19.612 99.2209 19.54 99.3169L18.226 100.991C18.178 101.063 18.118 101.099 18.046 101.099C17.986 101.099 17.92 101.063 17.848 100.991C17.584 100.703 17.248 100.559 16.84 100.559H12.88C12.724 100.559 12.58 100.607 12.448 100.703C12.328 100.799 12.214 100.907 12.106 101.027C12.01 101.147 11.938 101.231 11.89 101.279C11.818 101.351 11.752 101.387 11.692 101.387C11.62 101.387 11.548 101.351 11.476 101.279L10.072 99.9469C10.012 99.8869 9.982 99.8149 9.982 99.7309C9.982 99.6469 10.012 99.5629 10.072 99.4789L11.44 97.9489C11.5 97.8649 11.53 97.8169 11.53 97.8049C11.53 97.7929 11.5 97.7449 11.44 97.6609L10.072 96.2569C10.012 96.1729 9.982 96.1009 9.982 96.0409C9.982 95.9809 10.012 95.9029 10.072 95.8069L11.476 94.0789C11.548 94.0069 11.62 93.9709 11.692 93.9709C11.752 93.9709 11.818 94.0069 11.89 94.0789C12.214 94.4389 12.544 94.6189 12.88 94.6189H16.876C17.056 94.6189 17.212 94.5589 17.344 94.4389C17.476 94.3189 17.59 94.1989 17.686 94.0789C17.782 93.9589 17.848 93.8749 17.884 93.8269C17.944 93.7549 18.004 93.7189 18.064 93.7189C18.1 93.7189 18.16 93.7489 18.244 93.8089L19.54 94.9429C19.612 94.9909 19.648 95.0509 19.648 95.1229C19.648 95.1829 19.612 95.2609 19.54 95.3569L18.226 97.0309C18.178 97.1029 18.118 97.1389 18.046 97.1389C17.986 97.1389 17.92 97.1029 17.848 97.0309C17.584 96.7429 17.248 96.5989 16.84 96.5989H13.078C12.79 96.5989 12.562 96.6949 12.394 96.8869C12.238 97.0909 12.16 97.3249 12.16 97.5889C12.16 97.8649 12.238 98.0989 12.394 98.2909C12.562 98.4829 12.79 98.5789 13.078 98.5789H16.876Z" fill="black"/>
</g>
<defs>
<clipPath id="clip0_187_8">
<rect width="30" height="123" fill="white"/>
</clipPath>
</defs>
</svg>
